<?xml version="1.0" encoding="UTF-8" standalone="no"?>
<svg xmlns="http://www.w3.org/2000/svg" version="1.1" xmlns:xlink="http://www.w3.org/1999/xlink" xmlns:svgjs="http://svgjs.dev/svgjs" width="2000" height="2093" viewBox="0 0 2000 2093"><g transform="matrix(1,0,0,1,-0.1408646699281917,0.8498271882554036)"><svg viewBox="0 0 236 247" data-background-color="#000000" preserveAspectRatio="xMidYMid meet" height="2093" width="2000" xmlns="http://www.w3.org/2000/svg" xmlns:xlink="http://www.w3.org/1999/xlink"><g id="tight-bounds" transform="matrix(1,0,0,1,0.016691999332408614,-0.10007915888590446)"><svg viewBox="0 0 235.96643321753515 247.2" height="247.2" width="235.96643321753515"><rect width="235.966685969616" height="247.20036932395953" fill="url(#d815524c-c5a4-4880-b233-ac5294b44e96)" mask="url(#4f3038e5-0be2-434d-9bc0-d95170126d1f)" data-fill-palette-color="tertiary"></rect><g><svg viewBox="0 0 235.96643321753515 247.2" height="247.2" width="235.96643321753515"><g><svg viewBox="0 0 235.96643321753515 247.2" height="247.2" width="235.96643321753515"><g id="textblocktransform"><svg viewBox="0 0 235.96643321753515 247.2" height="247.2" width="235.96643321753515" id="textblock"><g><svg viewBox="0 0 235.96643321753515 247.2" height="247.2" width="235.96643321753515"><path d="M235.414 53.02C234.305 27.36 231.143 20.227 231.143 20.227 221.436-6.202 209.323-0.506 198.44 3.292 179.226 3.446 160.091 9.091 140.921 12.119 100.686 12.581 60.107 4.986 20.071 23.717 16.31 29.464-3.902 24.846 0.669 56.304 1.867 69.39 6.238 83.913 6.105 95.922 6.704 98.026 7.536 93.202 7.891 96.23 9.133 104.39 11.163 100.541 12.827 105.365 10.509 118.246 12.173 128.971 13.759 140.21 10.963 143.135 7.38 141.749 5.772 151.449 5.605 158.479 4.707 157.145 3.72 156.837 2.999 156.632 1.545 157.402 1.789 159.608 2.621 167.152-0.951 171.514 1.29 178.904-0.252 186.91 2.355 193.838 2 202.511 1.956 204.255 2.2 205.744 2.588 206.154 4.308 208.361 1.8 212.672 2.067 217.342 19.705 249.262 38.841 227.195 56.912 241.872 61.604 231.608 58.077 245.516 59.951 243.36 61.416 240.846 62.481 251.263 64.134 245.362 64.389 243.668 64 239.665 64.91 240.435 65.387 240.846 65.809 240.743 65.875 238.382 65.975 234.841 65.099 237.048 64.866 235.201 67.384 225.861 66.763 248.081 69.126 247.158 69.015 244.438 68.327 240.538 69.736 241.051 71.133 237.151 71.178 233.918 72.42 242.693 72.465 244.592 72.687 245.926 73.042 246.85 76.924 237.305 80.785 250.237 84.856 245.926 87.352 241.205 89.748 248.492 92.277 246.696 93.165 245.259 94.063 242.693 94.917 247.004 105.378 247.928 116.527 244.079 126.445 247.158 152.946 241.41 181.268 249.518 209.212 241.923 215.801 238.998 222.646 234.841 229.069 231.506 229.069 231.506 234.271 222.371 234.271 181.316S235.381 145.393 235.547 112.703C235.714 80.013 236.49 78.679 235.381 53.02Z" opacity="1" fill="url(#d815524c-c5a4-4880-b233-ac5294b44e96)" data-fill-palette-color="tertiary"></path><g transform="matrix(1,0,0,1,55.76832000000001,26.230666666666668)"><svg width="124.42979321753513" viewBox="1.1 -35.95 25.75 40.300000000000004" height="194.73866666666666" data-palette-color="#000000"><path d="M10.45 4.35L10.45 4.35Q7.85 4.35 5.73 2.88 3.6 1.4 2.35-1.38 1.1-4.15 1.1-8.05L1.1-8.05Q1.1-11.9 2.3-15.85 3.5-19.8 5.58-23.4 7.65-27 10.3-29.83 12.95-32.65 15.88-34.3 18.8-35.95 21.65-35.95L21.65-35.95Q23.55-35.95 24.7-35.15 25.85-34.35 26.35-33.08 26.85-31.8 26.85-30.3L26.85-30.3Q26.85-28.55 26.25-26.88 25.65-25.2 24.65-24.1 23.65-23 22.45-23L22.45-23Q22.05-23 21.63-23.25 21.2-23.5 20.9-24.15L20.9-24.15Q21.6-24.65 22.53-25.95 23.45-27.25 24.13-28.85 24.8-30.45 24.8-31.8L24.8-31.8Q24.8-32.95 24.13-33.7 23.45-34.45 21.8-34.45L21.8-34.45Q19.65-34.45 17.32-32.7 15-30.95 12.83-28.03 10.65-25.1 8.9-21.5 7.15-17.9 6.13-14.15 5.1-10.4 5.1-7.05L5.1-7.05Q5.1-2.5 7 0.08 8.9 2.65 11.8 2.65L11.8 2.65Q13.75 2.65 15.5 1.23 17.25-0.2 18.6-2.48 19.95-4.75 20.78-7.4 21.6-10.05 21.8-12.5L21.8-12.5Q19.95-12.9 18.8-13.03 17.65-13.15 16.65-13.15L16.65-13.15Q16-13.15 15.28-13.13 14.55-13.1 13.6-13.1L13.6-13.1Q13.95-14.55 14.83-15.13 15.7-15.7 17-15.7L17-15.7Q18.4-15.7 19.93-15.23 21.45-14.75 22.9-14.2 24.35-13.65 25.45-13.35L25.45-13.35 25.1-11.75Q24.15-9.25 23.55-7.38 22.95-5.5 22.63-4.08 22.3-2.65 22.18-1.55 22.05-0.45 22.05 0.45L22.05 0.45Q22.05 1.45 22.13 2.4 22.2 3.35 22.25 4.35L22.25 4.35Q21.45 4 20.83 3.53 20.2 3.05 19.88 2.35 19.55 1.65 19.55 0.75L19.55 0.75Q19.55 0.2 19.63-0.35 19.7-0.9 19.9-1.55L19.9-1.55Q18.1 0.95 15.75 2.65 13.4 4.35 10.45 4.35Z" opacity="1" transform="matrix(1,0,0,1,0,0)" fill="#000000" class="wordmark-text-0" data-fill-palette-color="quaternary" id="text-0"></path></svg></g></svg></g></svg></g></svg></g><g></g></svg></g><defs></defs><mask id="4f3038e5-0be2-434d-9bc0-d95170126d1f"><g id="SvgjsG1342"><svg viewBox="0 0 235.96643321753515 247.2" height="247.2" width="235.96643321753515"><g><svg viewBox="0 0 235.96643321753515 247.2" height="247.2" width="235.96643321753515"><g><svg viewBox="0 0 235.96643321753515 247.2" height="247.2" width="235.96643321753515"><g id="SvgjsG1341"><svg viewBox="0 0 235.96643321753515 247.2" height="247.2" width="235.96643321753515" id="SvgjsSvg1340"><g><svg viewBox="0 0 235.96643321753515 247.2" height="247.2" width="235.96643321753515"><path d="M235.414 53.02C234.305 27.36 231.143 20.227 231.143 20.227 221.436-6.202 209.323-0.506 198.44 3.292 179.226 3.446 160.091 9.091 140.921 12.119 100.686 12.581 60.107 4.986 20.071 23.717 16.31 29.464-3.902 24.846 0.669 56.304 1.867 69.39 6.238 83.913 6.105 95.922 6.704 98.026 7.536 93.202 7.891 96.23 9.133 104.39 11.163 100.541 12.827 105.365 10.509 118.246 12.173 128.971 13.759 140.21 10.963 143.135 7.38 141.749 5.772 151.449 5.605 158.479 4.707 157.145 3.72 156.837 2.999 156.632 1.545 157.402 1.789 159.608 2.621 167.152-0.951 171.514 1.29 178.904-0.252 186.91 2.355 193.838 2 202.511 1.956 204.255 2.2 205.744 2.588 206.154 4.308 208.361 1.8 212.672 2.067 217.342 19.705 249.262 38.841 227.195 56.912 241.872 61.604 231.608 58.077 245.516 59.951 243.36 61.416 240.846 62.481 251.263 64.134 245.362 64.389 243.668 64 239.665 64.91 240.435 65.387 240.846 65.809 240.743 65.875 238.382 65.975 234.841 65.099 237.048 64.866 235.201 67.384 225.861 66.763 248.081 69.126 247.158 69.015 244.438 68.327 240.538 69.736 241.051 71.133 237.151 71.178 233.918 72.42 242.693 72.465 244.592 72.687 245.926 73.042 246.85 76.924 237.305 80.785 250.237 84.856 245.926 87.352 241.205 89.748 248.492 92.277 246.696 93.165 245.259 94.063 242.693 94.917 247.004 105.378 247.928 116.527 244.079 126.445 247.158 152.946 241.41 181.268 249.518 209.212 241.923 215.801 238.998 222.646 234.841 229.069 231.506 229.069 231.506 234.271 222.371 234.271 181.316S235.381 145.393 235.547 112.703C235.714 80.013 236.49 78.679 235.381 53.02Z" opacity="1" fill="white"></path><g transform="matrix(1,0,0,1,55.76832000000001,26.230666666666668)"><svg width="124.42979321753513" viewBox="1.1 -35.95 25.75 40.300000000000004" height="194.73866666666666" data-palette-color="#000000"><path d="M10.45 4.35L10.45 4.35Q7.85 4.35 5.73 2.88 3.6 1.4 2.35-1.38 1.1-4.15 1.1-8.05L1.1-8.05Q1.1-11.9 2.3-15.85 3.5-19.8 5.58-23.4 7.65-27 10.3-29.83 12.95-32.65 15.88-34.3 18.8-35.95 21.65-35.95L21.65-35.95Q23.55-35.95 24.7-35.15 25.85-34.35 26.35-33.08 26.85-31.8 26.85-30.3L26.85-30.3Q26.85-28.55 26.25-26.88 25.65-25.2 24.65-24.1 23.65-23 22.45-23L22.45-23Q22.05-23 21.63-23.25 21.2-23.5 20.9-24.15L20.9-24.15Q21.6-24.65 22.53-25.95 23.45-27.25 24.13-28.85 24.8-30.45 24.8-31.8L24.8-31.8Q24.8-32.95 24.13-33.7 23.45-34.45 21.8-34.45L21.8-34.45Q19.65-34.45 17.32-32.7 15-30.95 12.83-28.03 10.65-25.1 8.9-21.5 7.15-17.9 6.13-14.15 5.1-10.4 5.1-7.05L5.1-7.05Q5.1-2.5 7 0.08 8.9 2.65 11.8 2.65L11.8 2.65Q13.75 2.65 15.5 1.23 17.25-0.2 18.6-2.48 19.95-4.75 20.78-7.4 21.6-10.05 21.8-12.5L21.8-12.5Q19.95-12.9 18.8-13.03 17.65-13.15 16.65-13.15L16.65-13.15Q16-13.15 15.28-13.13 14.55-13.1 13.6-13.1L13.6-13.1Q13.95-14.55 14.83-15.13 15.7-15.7 17-15.7L17-15.7Q18.4-15.7 19.93-15.23 21.45-14.75 22.9-14.2 24.35-13.65 25.45-13.35L25.45-13.35 25.1-11.75Q24.15-9.25 23.55-7.38 22.95-5.5 22.63-4.08 22.3-2.65 22.18-1.55 22.05-0.45 22.05 0.45L22.05 0.45Q22.05 1.45 22.13 2.4 22.2 3.35 22.25 4.35L22.25 4.35Q21.45 4 20.83 3.53 20.2 3.05 19.88 2.35 19.55 1.65 19.55 0.75L19.55 0.75Q19.55 0.2 19.63-0.35 19.7-0.9 19.9-1.55L19.9-1.55Q18.1 0.95 15.75 2.65 13.4 4.35 10.45 4.35Z" opacity="1" transform="matrix(1,0,0,1,0,0)" fill="black" class="wordmark-text-0" id="SvgjsPath1339"></path></svg></g></svg></g></svg></g></svg></g><g></g></svg></g><defs><mask></mask></defs></svg><rect width="235.96643321753515" height="247.2" fill="black" stroke="none" visibility="hidden"></rect></g></mask><linearGradient x1="0" x2="1" y1="0.5" y2="0.5" id="d815524c-c5a4-4880-b233-ac5294b44e96"><stop stop-color="#ffa62e" offset="0"></stop><stop stop-color="#f71b3d" offset="1"></stop></linearGradient></svg><rect width="235.96643321753515" height="247.2" fill="none" stroke="none" visibility="hidden"></rect></g></svg></g></svg>
